<svg width="30" height="31" viewBox="0 0 30 31" fill="none" xmlns="http://www.w3.org/2000/svg">
<path d="M29.3252 9.03454V9.14157C29.3252 10.4026 29.3252 11.0345 29.0217 11.5506C28.7181 12.0668 28.1654 12.3732 27.0627 12.9876L25.9 13.6327C26.7006 10.9231 26.9689 8.01109 27.0671 5.52138L27.0818 5.19734L27.0847 5.12109C28.0393 5.45247 28.5759 5.70027 28.9102 6.1636C29.3252 6.73984 29.3252 7.50523 29.3252 9.03454ZM0 9.03454V9.14157C0 10.4026 2.1849e-08 11.0345 0.303516 11.5506C0.607031 12.0668 1.15981 12.3732 2.26244 12.9876L3.42665 13.6327C2.6246 10.9231 2.35628 8.01109 2.25804 5.52138L2.24338 5.19734L2.24191 5.12109C1.28591 5.45247 0.749258 5.70027 0.414951 6.1636C0 6.73984 0 7.5067 0 9.03454Z" fill="#C6C6C6"/>
<path fill-rule="evenodd" clip-rule="evenodd" d="M21.084 0.509124C18.9626 0.161615 16.8159 -0.00857079 14.6662 0.000331953C12.0518 0.000331953 9.89645 0.230534 8.24837 0.509124C6.5783 0.790645 5.744 0.931406 5.04606 1.79063C4.34959 2.64986 4.38625 3.578 4.45956 5.43429C4.71322 11.8096 6.08857 19.7743 13.5665 20.4781V25.6599H11.4697C11.1309 25.6601 10.8026 25.7776 10.5406 25.9925C10.2787 26.2074 10.0992 26.5065 10.0328 26.8387L9.75422 28.2258H5.86863C5.57698 28.2258 5.29726 28.3417 5.09103 28.5479C4.8848 28.7541 4.76894 29.0338 4.76894 29.3255C4.76894 29.6172 4.8848 29.8969 5.09103 30.1031C5.29726 30.3093 5.57698 30.4252 5.86863 30.4252H23.4637C23.7554 30.4252 24.0351 30.3093 24.2413 30.1031C24.4476 29.8969 24.5634 29.6172 24.5634 29.3255C24.5634 29.0338 24.4476 28.7541 24.2413 28.5479C24.0351 28.3417 23.7554 28.2258 23.4637 28.2258H19.5782L19.2996 26.8387C19.2331 26.5065 19.0537 26.2074 18.7917 25.9925C18.5298 25.7776 18.2015 25.6601 17.8626 25.6599H15.7659V20.4781C23.2438 19.7743 24.6206 11.811 24.8728 5.43429C24.9461 3.578 24.9842 2.64839 24.2863 1.79063C23.5884 0.931406 22.7541 0.790645 21.084 0.509124ZM15.8201 5.58238C16.0211 5.66562 16.1929 5.80659 16.3137 5.98746C16.4345 6.16833 16.499 6.38097 16.499 6.5985V12.4635C16.499 12.7552 16.3831 13.0349 16.1769 13.2411C15.9707 13.4474 15.691 13.5632 15.3993 13.5632C15.1077 13.5632 14.8279 13.4474 14.6217 13.2411C14.4155 13.0349 14.2996 12.7552 14.2996 12.4635V9.25242L13.977 9.575C13.8764 9.68304 13.755 9.7697 13.6201 9.82981C13.4852 9.88991 13.3396 9.92223 13.1919 9.92484C13.0442 9.92744 12.8976 9.90028 12.7606 9.84497C12.6237 9.78966 12.4993 9.70734 12.3949 9.60291C12.2905 9.49849 12.2081 9.3741 12.1528 9.23717C12.0975 9.10024 12.0704 8.95357 12.073 8.80591C12.0756 8.65826 12.1079 8.51264 12.168 8.37774C12.2281 8.24285 12.3148 8.12144 12.4228 8.02077L14.6222 5.82138C14.7759 5.66758 14.9717 5.56279 15.1849 5.52025C15.3981 5.47771 15.6192 5.49933 15.8201 5.58238Z" fill="#C6C6C6"/>
</svg>
