<svg width="30" height="31" viewBox="0 0 30 31" fill="none" xmlns="http://www.w3.org/2000/svg">
<path d="M0.0240031 28.3743C1.71775 30.8779 9.08681 32.8421 12.5688 28.1573C16.3343 30.0176 22.5437 29.4409 27.601 26.5264C28.3031 26.1234 28.9677 25.6118 29.3757 24.8925C30.2954 23.2725 30.3164 21.0246 28.6391 17.7086C25.8412 10.4938 20.811 4.15954 18.7797 1.6125C18.3626 1.22028 15.7028 0.662198 14.0795 0.124264C13.3624 -0.103621 12.0287 -0.255545 10.434 1.91789C9.67639 2.94725 6.2394 5.4788 10.599 7.17941C11.2756 7.35769 11.7722 7.68479 14.8551 7.10345C15.2557 7.03214 16.2578 7.10345 16.9644 8.38395L18.4406 10.5651C18.5787 10.7672 18.6658 11.0016 18.6942 11.2472C18.9522 13.5711 18.9432 16.4793 20.1974 17.9536C18.2621 16.5057 10.5015 10.0766 0 17.0527M0 16.9568C0.026935 28.3743 0.0169465 28.3743 0.0169465 28.3743C0.0169465 28.3743 0.00553937 19.375 0 16.9568Z" fill="#C6C6C6"/>
</svg>
