<svg width="14" height="23" viewBox="0 0 14 23" fill="none" xmlns="http://www.w3.org/2000/svg">
<path d="M9.54121 13.6407L10.6957 13.7598V23L7.50682 19.6518V14.325L8.43299 14.7697L9.54121 13.6407ZM4.45879 13.6407L3.3037 13.7598V23L6.49252 19.6518V14.325L5.5664 14.7697L4.45879 13.6407ZM13.2039 7.8517L13.5775 9.1304L12.456 9.8739L12.3621 11.2024L11.0497 11.5237L10.5003 12.7394L9.15485 12.5997L8.21541 13.554L7 12.9702L5.78459 13.554L4.84515 12.5965L3.49967 12.7363L2.95034 11.5206L1.63792 11.2024L1.544 9.87575L0.419305 9.12975L0.792948 7.8511L0 6.7739L0.795491 5.6979L0.419305 4.42175L1.54145 3.67825L1.63537 2.3515L2.95034 2.0334L3.49967 0.81775L4.84515 0.95745L5.78459 0L7 0.58385L8.21541 0L9.15485 0.95745L10.5003 0.81775L11.0497 2.0334L12.3621 2.35465L12.456 3.68135L13.5775 4.42485L13.2039 5.70355L14 6.7739L13.2039 7.8517ZM10.7014 6.7739C10.7014 6.05949 10.4859 5.36113 10.0823 4.76713C9.67865 4.17312 9.10493 3.71015 8.43369 3.43675C7.76245 3.16336 7.02384 3.09183 6.31126 3.23121C5.59867 3.37058 4.94412 3.7146 4.43038 4.21976C3.91663 4.72492 3.56677 5.36854 3.42503 6.06921C3.28329 6.76989 3.35603 7.49617 3.63407 8.15619C3.91211 8.81622 4.38294 9.38035 4.98704 9.77725C5.59114 10.1742 6.30137 10.386 7.02792 10.386C8.00172 10.3845 8.93519 10.0035 9.62377 9.32639C10.3124 8.64931 10.6999 7.73143 10.7014 6.7739ZM7.02792 4.15975C6.50211 4.15975 5.98812 4.31306 5.55093 4.6003C5.11374 4.88754 4.77299 5.2958 4.57177 5.77347C4.37055 6.25113 4.3179 6.77673 4.42048 7.28382C4.52305 7.7909 4.77625 8.25669 5.14804 8.62228C5.51984 8.98787 5.99354 9.23684 6.50923 9.33771C7.02493 9.43859 7.55947 9.38683 8.04525 9.18898C8.53103 8.99113 8.94624 8.65608 9.23837 8.2262C9.53049 7.79632 9.68642 7.29092 9.68643 6.7739C9.68442 6.08138 9.40362 5.41781 8.90543 4.9283C8.40725 4.43878 7.73221 4.16314 7.02792 4.16165V4.15975Z" fill="#363636"/>
</svg>
