<svg width="21" height="23" viewBox="0 0 21 23" fill="none" xmlns="http://www.w3.org/2000/svg">
<path d="M4.07864 1.38444C4.21955 1.21626 4.28891 0.999534 4.27182 0.780788C4.25472 0.562042 4.15255 0.358716 3.98723 0.21446C3.8219 0.0702035 3.60661 -0.00348278 3.38756 0.00921966C3.16852 0.0219221 2.96319 0.120001 2.81564 0.2824L1.37159 1.93658C0.552745 2.87496 0.0898598 4.07134 0.0638874 5.31648L0.000179011 8.35549C-0.00209604 8.46557 0.0173336 8.57502 0.0573586 8.6776C0.0973837 8.78017 0.15722 8.87386 0.233452 8.95331C0.309684 9.03276 0.400818 9.09641 0.501651 9.14064C0.602484 9.18487 0.71104 9.20881 0.821124 9.21108C0.931207 9.21336 1.04066 9.19393 1.14323 9.1539C1.24581 9.11388 1.33949 9.05404 1.41894 8.97781C1.49839 8.90158 1.56205 8.81044 1.60628 8.70961C1.65051 8.60878 1.67444 8.50022 1.67672 8.39014L1.73931 5.35225C1.75724 4.50026 2.07414 3.6817 2.63458 3.03975L4.07864 1.38444Z" fill="#363636"/>
<path fill-rule="evenodd" clip-rule="evenodd" d="M3.86791 7.29662C3.94297 6.10085 4.47092 4.97862 5.34429 4.15841C6.21766 3.3382 7.37079 2.88166 8.56892 2.88174H9.19147V2.04347C9.19147 1.74704 9.30923 1.46275 9.51884 1.25315C9.72844 1.04354 10.0127 0.925781 10.3092 0.925781C10.6056 0.925781 10.8899 1.04354 11.0995 1.25315C11.3091 1.46275 11.4269 1.74704 11.4269 2.04347V2.88174H12.0494C13.2475 2.88166 14.4007 3.3382 15.274 4.15841C16.1474 4.97862 16.6754 6.10085 16.7504 7.29662L16.9974 11.2465C17.0929 12.7523 17.5985 14.2033 18.4594 15.4424C18.6375 15.6984 18.7463 15.9961 18.7753 16.3067C18.8043 16.6172 18.7524 16.93 18.6247 17.2145C18.497 17.4991 18.2978 17.7457 18.0465 17.9305C17.7953 18.1153 17.5005 18.2319 17.1908 18.269L13.3828 18.725V19.9265C13.3828 20.7417 13.059 21.5235 12.4826 22.0999C11.9061 22.6764 11.1243 23.0002 10.3092 23.0002C9.49398 23.0002 8.71218 22.6764 8.13576 22.0999C7.55934 21.5235 7.23551 20.7417 7.23551 19.9265V18.725L3.42754 18.2679C3.11804 18.2307 2.82343 18.1141 2.57233 17.9293C2.32123 17.7446 2.12217 17.4981 1.99449 17.2137C1.86681 16.9294 1.81486 16.6168 1.84368 16.3064C1.8725 15.996 1.98111 15.6984 2.15896 15.4424C3.01985 14.2033 3.52541 12.7523 3.6209 11.2465L3.86791 7.29662ZM8.56892 4.55828C7.79723 4.55819 7.05452 4.8522 6.492 5.38046C5.92947 5.90873 5.58943 6.63152 5.54109 7.40169L5.2952 11.3516C5.18028 13.1631 4.5719 14.9086 3.53595 16.3991C3.52306 16.4176 3.51518 16.4392 3.51308 16.4616C3.51097 16.4841 3.51472 16.5067 3.52394 16.5273C3.53317 16.5479 3.54756 16.5657 3.56572 16.5791C3.58389 16.5925 3.60521 16.6009 3.6276 16.6036L7.80442 17.1055C9.46866 17.3044 11.1497 17.3044 12.8139 17.1055L16.9907 16.6036C17.0131 16.6009 17.0344 16.5925 17.0526 16.5791C17.0708 16.5657 17.0852 16.5479 17.0944 16.5273C17.1036 16.5067 17.1074 16.4841 17.1052 16.4616C17.1031 16.4392 17.0953 16.4176 17.0824 16.3991C16.0468 14.9085 15.4388 13.163 15.3242 11.3516L15.0772 7.40169C15.0289 6.63152 14.6889 5.90873 14.1263 5.38046C13.5638 4.8522 12.8211 4.55819 12.0494 4.55828H8.56892ZM10.3092 21.3237C9.53796 21.3237 8.91205 20.6977 8.91205 19.9265V19.0883H11.7063V19.9265C11.7063 20.6977 11.0804 21.3237 10.3092 21.3237Z" fill="#363636"/>
<path d="M16.6073 0.206537C16.4399 0.352702 16.3373 0.559382 16.3222 0.781134C16.3072 1.00289 16.3808 1.22155 16.5268 1.38905L17.9709 3.04324C18.5312 3.68565 18.8477 4.50463 18.8651 5.35686L18.9288 8.39363C18.9334 8.61595 19.0261 8.82734 19.1865 8.9813C19.347 9.13526 19.562 9.21917 19.7844 9.21457C20.0067 9.20998 20.2181 9.11726 20.372 8.9568C20.526 8.79635 20.6099 8.5813 20.6053 8.35898L20.5416 5.32109C20.5156 4.07595 20.0527 2.87957 19.2339 1.94119L17.7898 0.287011C17.6437 0.119567 17.437 0.0170268 17.2152 0.001936C16.9935 -0.0131548 16.7748 0.0604395 16.6073 0.206537Z" fill="#363636"/>
</svg>
