<svg width="25" height="23" viewBox="0 0 25 23" fill="none" xmlns="http://www.w3.org/2000/svg">
<path d="M16.8297 8.69186L10.9473 4.41279C10.8365 4.33212 10.7077 4.28582 10.5746 4.27881C10.4416 4.27181 10.3093 4.30437 10.1919 4.37303C10.0745 4.44168 9.97638 4.54385 9.90805 4.66861C9.83971 4.79338 9.80372 4.93605 9.80392 5.0814V13.6395C9.80372 13.7849 9.83971 13.9276 9.90805 14.0523C9.97638 14.1771 10.0745 14.2792 10.1919 14.3479C10.3093 14.4166 10.4416 14.4491 10.5746 14.4421C10.7077 14.4351 10.8365 14.3888 10.9473 14.3081L16.8297 10.0291C16.9308 9.95588 17.0137 9.85653 17.0711 9.73987C17.1285 9.62321 17.1585 9.49287 17.1585 9.36047C17.1585 9.22807 17.1285 9.09772 17.0711 8.98106C17.0137 8.8644 16.9308 8.76505 16.8297 8.69186ZM11.2745 12.1405V6.58041L15.0956 9.36047L11.2745 12.1405ZM23.2843 0H1.71569C1.26066 0 0.824267 0.197238 0.502513 0.548323C0.180759 0.899409 0 1.37558 0 1.87209V16.8488C0 17.3453 0.180759 17.8215 0.502513 18.1726C0.824267 18.5237 1.26066 18.7209 1.71569 18.7209H23.2843C23.7393 18.7209 24.1757 18.5237 24.4975 18.1726C24.8192 17.8215 25 17.3453 25 16.8488V1.87209C25 1.37558 24.8192 0.899409 24.4975 0.548323C24.1757 0.197238 23.7393 0 23.2843 0ZM23.5294 16.8488C23.5294 16.9198 23.5036 16.9878 23.4576 17.0379C23.4117 17.0881 23.3493 17.1163 23.2843 17.1163H1.71569C1.65068 17.1163 1.58834 17.0881 1.54238 17.0379C1.49641 16.9878 1.47059 16.9198 1.47059 16.8488V1.87209C1.47059 1.80116 1.49641 1.73314 1.54238 1.68298C1.58834 1.63283 1.65068 1.60465 1.71569 1.60465H23.2843C23.3493 1.60465 23.4117 1.63283 23.4576 1.68298C23.5036 1.73314 23.5294 1.80116 23.5294 1.87209V16.8488ZM25 22.1977C25 22.4105 24.9225 22.6145 24.7846 22.765C24.6467 22.9155 24.4597 23 24.2647 23H0.735294C0.540282 23 0.353257 22.9155 0.215363 22.765C0.0774682 22.6145 0 22.4105 0 22.1977C0 21.9849 0.0774682 21.7808 0.215363 21.6303C0.353257 21.4799 0.540282 21.3953 0.735294 21.3953H24.2647C24.4597 21.3953 24.6467 21.4799 24.7846 21.6303C24.9225 21.7808 25 21.9849 25 22.1977Z" fill="#363636"/>
</svg>
