<svg width="25" height="25" viewBox="0 0 25 25" fill="none" xmlns="http://www.w3.org/2000/svg">
<path d="M12.4997 7.39062V24.0013M1 8.66837C1 8.32949 1.13462 8.00449 1.37424 7.76487C1.61387 7.52524 1.93887 7.39062 2.27775 7.39062H22.7217C23.0606 7.39062 23.3856 7.52524 23.6252 7.76487C23.8648 8.00449 23.9994 8.32949 23.9994 8.66837V11.2239C23.9994 11.5627 23.8648 11.8877 23.6252 12.1274C23.3856 12.367 23.0606 12.5016 22.7217 12.5016H2.27775C1.93887 12.5016 1.61387 12.367 1.37424 12.1274C1.13462 11.8877 1 11.5627 1 11.2239V8.66837Z" stroke="#363636" stroke-width="2" stroke-linecap="round" stroke-linejoin="round"/>
<path d="M21.4431 12.5003V21.4445C21.4431 22.1223 21.1739 22.7723 20.6947 23.2515C20.2154 23.7308 19.5654 24 18.8876 24H6.11018C5.43242 24 4.78242 23.7308 4.30317 23.2515C3.82393 22.7723 3.55469 22.1223 3.55469 21.4445V12.5003M6.74905 7.38929C5.90186 7.38929 5.08936 7.05274 4.4903 6.45368C3.89124 5.85462 3.55469 5.04212 3.55469 4.19493C3.55469 3.34773 3.89124 2.53523 4.4903 1.93617C5.08936 1.33711 5.90186 1.00056 6.74905 1.00056C7.98168 0.979083 9.18958 1.57715 10.2152 2.71678C11.2409 3.8564 12.0367 5.48469 12.4989 7.38929C12.9611 5.48469 13.7569 3.8564 14.7826 2.71678C15.8082 1.57715 17.0162 0.979083 18.2488 1.00056C19.096 1.00056 19.9085 1.33711 20.5075 1.93617C21.1066 2.53523 21.4431 3.34773 21.4431 4.19493C21.4431 5.04212 21.1066 5.85462 20.5075 6.45368C19.9085 7.05274 19.096 7.38929 18.2488 7.38929" stroke="#363636" stroke-width="2" stroke-linecap="round" stroke-linejoin="round"/>
</svg>
