<svg width="21" height="19" viewBox="0 0 21 19" fill="none" xmlns="http://www.w3.org/2000/svg">
<path d="M10.6655 0.225538C11.229 -0.279962 12.125 0.119538 12.125 0.876038V17.156C12.125 17.913 11.229 18.3125 10.6655 17.807L6.5625 14.124C6.12673 13.7327 5.56171 13.5161 4.976 13.516H2.625C1.92881 13.516 1.26113 13.2395 0.768845 12.7472C0.276562 12.2549 0 11.5872 0 10.891V7.14104C0 5.69104 1.175 4.51604 2.625 4.51604H4.976C5.56171 4.51593 6.12673 4.2994 6.5625 3.90804L10.6655 0.225538ZM10.875 1.71704L7.3975 4.83904C6.73223 5.43602 5.86985 5.76615 4.976 5.76604H2.625C2.26033 5.76604 1.91059 5.9109 1.65273 6.16877C1.39487 6.42663 1.25 6.77637 1.25 7.14104V10.891C1.25 11.2557 1.39487 11.6054 1.65273 11.8633C1.91059 12.1212 2.26033 12.266 2.625 12.266H4.976C5.86992 12.2661 6.7323 12.5964 7.3975 13.1935L10.875 16.316V1.71704ZM16.294 1.21404C16.4073 1.09317 16.5639 1.02222 16.7295 1.01678C16.8951 1.01134 17.056 1.07186 17.177 1.18504L17.1825 1.19004L17.192 1.19904C17.237 1.24217 17.2807 1.28669 17.323 1.33254C17.408 1.42254 17.525 1.55304 17.664 1.72404C18.0438 2.19402 18.3812 2.69683 18.672 3.22654C19.4015 4.54554 20.125 6.49254 20.125 9.01604C20.125 11.5395 19.4015 13.486 18.672 14.806C18.3811 15.3356 18.0438 15.8382 17.664 16.308C17.5239 16.4798 17.3763 16.6453 17.2215 16.804L17.1915 16.833L17.1825 16.842L17.1795 16.845L17.178 16.846L17.288 16.7365C17.3415 16.683 17.3595 16.6645 17.177 16.8465C17.0552 16.9538 16.8964 17.0095 16.7342 17.0018C16.5721 16.9941 16.4192 16.9236 16.3081 16.8053C16.197 16.6869 16.1364 16.5299 16.139 16.3676C16.1415 16.2053 16.2072 16.0503 16.322 15.9355L16.324 15.9335C16.3546 15.9038 16.3845 15.8733 16.4135 15.842C16.479 15.772 16.5765 15.6645 16.695 15.5185C17.0275 15.1062 17.323 14.6653 17.578 14.201C18.224 13.033 18.875 11.2925 18.875 9.01604C18.875 6.73954 18.224 4.99904 17.578 3.83104C17.323 3.36657 17.0276 2.92552 16.695 2.51304C16.5826 2.37483 16.4642 2.2417 16.34 2.11404L16.324 2.09804L16.3225 2.09654L16.3215 2.09554C16.2011 1.98208 16.1307 1.82554 16.1255 1.66022C16.1204 1.4949 16.1809 1.33477 16.294 1.21404ZM14.292 4.21604C14.3479 4.15587 14.415 4.10731 14.4897 4.07311C14.5643 4.03892 14.645 4.01976 14.727 4.01675C14.8091 4.01373 14.8909 4.0269 14.9679 4.05552C15.0448 4.08414 15.1154 4.12764 15.1755 4.18354L15.177 4.18504L15.1795 4.18754L15.1865 4.19354L15.2075 4.21404C15.2245 4.2307 15.2473 4.25387 15.276 4.28354C15.3325 4.34254 15.4105 4.42704 15.502 4.53604C15.685 4.75404 15.9255 5.07204 16.165 5.48254C16.7928 6.55433 17.1242 7.77389 17.125 9.01604C17.125 10.5275 16.6435 11.729 16.165 12.55C15.925 12.96 15.685 13.2785 15.502 13.4965C15.4084 13.6081 15.31 13.7156 15.207 13.8185L15.1975 13.828L15.1865 13.8385L15.1795 13.845L15.177 13.8475L15.176 13.849H15.175C15.0533 13.9592 14.8932 14.0171 14.7292 14.0101C14.5652 14.0032 14.4105 13.932 14.2985 13.812C14.1866 13.6919 14.1263 13.5327 14.1308 13.3686C14.1353 13.2045 14.2041 13.0488 14.3225 12.935L14.3235 12.934L14.3315 12.926L14.374 12.883C14.413 12.8425 14.472 12.7785 14.544 12.6925C14.689 12.5195 14.8865 12.2595 15.0845 11.92C15.6012 11.0394 15.874 10.0371 15.875 9.01604C15.875 7.77754 15.4815 6.79154 15.085 6.11254C14.887 5.77254 14.69 5.51254 14.545 5.34004C14.4771 5.25943 14.406 5.18153 14.332 5.10654L14.3235 5.09804C14.2024 4.98518 14.1315 4.82936 14.1255 4.66391C14.1195 4.49845 14.1794 4.33738 14.292 4.21604ZM17.1825 1.19004L17.177 1.18504L17.178 1.18604L17.1795 1.18704L17.1825 1.19004Z" fill="white"/>
</svg>
