<svg width="16" height="16" viewBox="0 0 16 16" fill="none" xmlns="http://www.w3.org/2000/svg">
<path d="M10 1.00204C10 0.12904 8.96 -0.324961 8.32 0.269039L4.448 3.86204C4.35564 3.94801 4.23418 3.99587 4.108 3.99604H1.5C1.10218 3.99604 0.720644 4.15407 0.43934 4.43538C0.158035 4.71668 0 5.09821 0 5.49604V10.496C0 10.8939 0.158035 11.2754 0.43934 11.5567C0.720644 11.838 1.10218 11.996 1.5 11.996H4.108C4.23405 11.9959 4.35548 12.0434 4.448 12.129L8.32 15.723C8.96 16.316 10 15.863 10 14.99V1.00204ZM5.128 4.59504L9 1.00204V14.99L5.128 11.396C4.8506 11.1389 4.48627 10.996 4.108 10.996H1.5C1.36739 10.996 1.24021 10.9434 1.14645 10.8496C1.05268 10.7558 1 10.6286 1 10.496V5.49604C1 5.36343 1.05268 5.23625 1.14645 5.14249C1.24021 5.04872 1.36739 4.99604 1.5 4.99604H4.108C4.48627 4.99609 4.8506 4.85222 5.128 4.59504ZM11.147 5.64304C11.2408 5.5493 11.3679 5.49665 11.5005 5.49665C11.6331 5.49665 11.7602 5.5493 11.854 5.64304L13.5 7.29004L15.146 5.64304C15.2398 5.54915 15.367 5.49636 15.4996 5.49626C15.6323 5.49617 15.7596 5.54879 15.8535 5.64254C15.9474 5.73629 16.0002 5.8635 16.0003 5.99619C16.0004 6.12887 15.9478 6.25615 15.854 6.35004L14.207 7.99604L15.854 9.64204C15.9478 9.73593 16.0004 9.86321 16.0003 9.99589C16.0002 10.1286 15.9474 10.2558 15.8535 10.3495C15.807 10.396 15.7518 10.4328 15.6911 10.4579C15.6304 10.483 15.5653 10.4959 15.4996 10.4958C15.367 10.4957 15.2398 10.4429 15.146 10.349L13.5 8.70304L11.854 10.349C11.8079 10.3968 11.7527 10.4349 11.6917 10.4611C11.6307 10.4873 11.5651 10.5011 11.4987 10.5017C11.4323 10.5022 11.3665 10.4896 11.305 10.4644C11.2436 10.4393 11.1877 10.4022 11.1408 10.3552C11.0939 10.3083 11.0567 10.2525 11.0316 10.191C11.0064 10.1296 10.9938 10.0637 10.9944 9.99734C10.995 9.93095 11.0087 9.86534 11.0349 9.80434C11.0612 9.74334 11.0992 9.68816 11.147 9.64204L12.793 7.99604L11.147 6.34904C11.0533 6.25528 11.0006 6.12812 11.0006 5.99554C11.0006 5.86296 11.0533 5.7368 11.147 5.64304Z" fill="white"/>
</svg>
