<svg width="26" height="22" viewBox="0 0 26 22" fill="none" xmlns="http://www.w3.org/2000/svg">
<path d="M13.7462 2H12.4761C11.8246 2 11.4994 2 11.2078 2.10204C11.0295 2.16445 10.862 2.2542 10.7112 2.36809C10.4643 2.55396 10.283 2.82456 9.92222 3.36667C9.73727 3.64456 9.46484 4.05273 9.35642 4.16753C9.08694 4.45041 8.73367 4.63918 8.34873 4.706C8.19384 4.73333 8.02711 4.73333 7.69273 4.73333C6.79984 4.73333 6.3534 4.73333 5.98896 4.83629C5.53968 4.9634 5.13045 5.20347 4.8003 5.53363C4.47014 5.86379 4.23006 6.27301 4.10296 6.72229C4 7.08673 4 7.53318 4 8.42607V12.0222C4 14.5988 4 15.8881 4.80087 16.688C5.60173 17.488 6.89004 17.4889 9.46667 17.4889H16.7556C19.3331 17.4889 20.6214 17.4889 21.4223 16.688C22.2222 15.8881 22.2222 14.5988 22.2222 12.0222V8.42698C22.2222 7.53409 22.2222 7.08764 22.1193 6.72229C21.9922 6.27301 21.7521 5.86379 21.4219 5.53363C21.0918 5.20347 20.6825 4.9634 20.2333 4.83629C19.8688 4.73333 19.4224 4.73333 18.5295 4.73333C18.196 4.73333 18.0284 4.73333 17.8735 4.706C17.4889 4.63899 17.136 4.45024 16.8667 4.16753C16.7574 4.05273 16.485 3.64456 16.3 3.36667C15.9392 2.82456 15.7588 2.55396 15.5119 2.36809C15.3612 2.2542 15.1936 2.16445 15.0153 2.10204C14.7238 2 14.3976 2 13.7462 2Z" stroke="#363636" stroke-width="1.5" stroke-linecap="round" stroke-linejoin="round"/>
<path d="M16.7576 10.6562C16.7576 11.6227 16.3737 12.5497 15.6902 13.2332C15.0067 13.9166 14.0798 14.3006 13.1132 14.3006C12.1466 14.3006 11.2196 13.9166 10.5362 13.2332C9.85272 12.5497 9.46875 11.6227 9.46875 10.6562C9.46875 9.6896 9.85272 8.76262 10.5362 8.07915C11.2196 7.39569 12.1466 7.01172 13.1132 7.01172C14.0798 7.01172 15.0067 7.39569 15.6902 8.07915C16.3737 8.76262 16.7576 9.6896 16.7576 10.6562Z" stroke="#363636" stroke-width="1.5" stroke-linecap="round" stroke-linejoin="round"/>
<path d="M19.4844 7.46875V7.47875" stroke="#363636" stroke-width="2" stroke-linecap="round" stroke-linejoin="round"/>
<path d="M2 19.5C12.1536 10.9085 12.3464 10.5915 22.5 2" stroke="#FF0000" stroke-width="1.5" stroke-linecap="round"/>
</svg>
