<svg width="31" height="28" viewBox="0 0 31 28" fill="none" xmlns="http://www.w3.org/2000/svg">
<path fill-rule="evenodd" clip-rule="evenodd" d="M11.639 0.843154C14.1567 -0.0729821 16.8842 -0.246724 19.4949 0.342727C22.1056 0.932177 24.4888 2.25984 26.3594 4.16679C28.23 6.07373 29.5085 8.47914 30.0421 11.0951C30.5756 13.711 30.3415 16.4266 29.3678 18.9168C28.3941 21.4069 26.722 23.5662 24.5517 25.136C22.3815 26.7058 19.805 27.6196 17.1307 27.7681C14.4564 27.9166 11.7976 27.2935 9.47266 25.9733C7.14771 24.6531 5.25511 22.6918 4.0214 20.3242C3.91856 20.137 3.85432 19.9312 3.83246 19.7187C3.8106 19.5062 3.83155 19.2914 3.89409 19.0869C3.95663 18.8824 4.0595 18.6924 4.19665 18.5279C4.3338 18.3635 4.50246 18.2279 4.69272 18.1293C4.88299 18.0306 5.09101 17.9708 5.30459 17.9535C5.51816 17.9361 5.73296 17.9614 5.93637 18.028C6.13979 18.0946 6.32771 18.2011 6.48909 18.3412C6.65048 18.4814 6.78208 18.6523 6.87615 18.8441C7.99288 20.9875 9.80608 22.6884 12.0198 23.6692C14.2335 24.65 16.717 24.8528 19.0648 24.2443C21.4126 23.6359 23.4862 22.2523 24.947 20.3193C26.4077 18.3863 27.1694 16.0181 27.1078 13.6013C27.0461 11.1844 26.1647 8.86174 24.6075 7.01229C23.0502 5.16284 20.909 3.89588 18.5335 3.41823C16.1579 2.94057 13.6883 3.28043 11.5277 4.38232C9.36716 5.48422 7.64324 7.28308 6.63738 9.48525L9.29737 8.51709C9.69821 8.3712 10.1404 8.38994 10.5266 8.56919C10.9128 8.74845 11.2115 9.07353 11.3568 9.47292C11.5022 9.87232 11.4824 10.3133 11.3017 10.6989C11.1211 11.0845 10.7944 11.383 10.3936 11.5289L4.34815 13.7293C3.94731 13.8752 3.50515 13.8564 3.11892 13.6772C2.7327 13.4979 2.43405 13.1729 2.28868 12.7735L0.0962463 6.74979C-0.0491213 6.3504 -0.029303 5.90941 0.151342 5.52383C0.331986 5.13825 0.65866 4.83968 1.0595 4.69378C1.46033 4.54789 1.9025 4.56663 2.28873 4.74589C2.67495 4.92514 2.9736 5.25022 3.11897 5.64961L3.89363 7.77798C5.48015 4.55569 8.25666 2.06975 11.639 0.843154Z" fill="white"/>
</svg>
