<svg width="31" height="28" viewBox="0 0 31 28" fill="none" xmlns="http://www.w3.org/2000/svg">
<path fill-rule="evenodd" clip-rule="evenodd" d="M18.6823 0.843154C16.1645 -0.0729821 13.4371 -0.246724 10.8264 0.342726C8.21573 0.932177 5.83245 2.25984 3.96189 4.16679C2.09133 6.07373 0.812745 8.47914 0.2792 11.0951C-0.254348 13.711 -0.0202492 16.4266 0.953472 18.9168C1.9272 21.4069 3.59928 23.5662 5.76955 25.136C7.93983 26.7058 10.5163 27.6196 13.1906 27.7681C15.8649 27.9166 18.5237 27.2935 20.8486 25.9733C23.1736 24.6531 25.0662 22.6918 26.2999 20.3242C26.4027 20.137 26.467 19.9312 26.4888 19.7187C26.5107 19.5062 26.4897 19.2914 26.4272 19.0869C26.3647 18.8824 26.2618 18.6924 26.1246 18.5279C25.9875 18.3635 25.8188 18.2279 25.6286 18.1293C25.4383 18.0306 25.2303 17.9708 25.0167 17.9535C24.8031 17.9361 24.5883 17.9614 24.3849 18.028C24.1815 18.0946 23.9936 18.2011 23.8322 18.3412C23.6708 18.4814 23.5392 18.6523 23.4451 18.8441C22.3284 20.9875 20.5152 22.6884 18.3015 23.6692C16.0878 24.65 13.6043 24.8528 11.2565 24.2443C8.90865 23.6359 6.83511 22.2523 5.37434 20.3193C3.91357 18.3863 3.15184 16.0181 3.2135 13.6013C3.27516 11.1844 4.15656 8.86174 5.71384 7.01229C7.27111 5.16284 9.41227 3.89588 11.7878 3.41822C14.1634 2.94057 16.633 3.28043 18.7936 4.38232C20.9541 5.48422 22.6781 7.28308 23.6839 9.48525L21.0239 8.51709C20.6231 8.3712 20.1809 8.38994 19.7947 8.56919C19.4085 8.74845 19.1098 9.07353 18.9644 9.47292C18.8191 9.87231 18.8389 10.3133 19.0195 10.6989C19.2002 11.0845 19.5269 11.383 19.9277 11.5289L25.9731 13.7293C26.374 13.8752 26.8161 13.8564 27.2024 13.6772C27.5886 13.4979 27.8872 13.1729 28.0326 12.7735L30.225 6.74979C30.3704 6.3504 30.3506 5.90941 30.1699 5.52383C29.9893 5.13825 29.6626 4.83968 29.2618 4.69378C28.861 4.54789 28.4188 4.56663 28.0326 4.74589C27.6463 4.92514 27.3477 5.25022 27.2023 5.64961L26.4277 7.77797C24.8411 4.55569 22.0646 2.06975 18.6823 0.843154Z" fill="white"/>
</svg>
