<svg width="20" height="17" viewBox="0 0 20 17" fill="none" xmlns="http://www.w3.org/2000/svg">
<path d="M10.4962 0.75H9.22607C8.57462 0.75 8.24936 0.75 7.9578 0.852044C7.77949 0.91445 7.61197 1.0042 7.46124 1.11809C7.21433 1.30396 7.03302 1.57456 6.67222 2.11667C6.48727 2.39456 6.21484 2.80273 6.10642 2.91753C5.83694 3.20041 5.48367 3.38918 5.09873 3.456C4.94384 3.48333 4.77711 3.48333 4.44273 3.48333C3.54984 3.48333 3.1034 3.48333 2.73896 3.58629C2.28968 3.7134 1.88045 3.95347 1.5503 4.28363C1.22014 4.61379 0.980063 5.02301 0.852955 5.47229C0.75 5.83673 0.75 6.28318 0.75 7.17607V10.7722C0.75 13.3488 0.75 14.6381 1.55087 15.438C2.35173 16.238 3.64004 16.2389 6.21667 16.2389H13.5056C16.0831 16.2389 17.3714 16.2389 18.1723 15.438C18.9722 14.6381 18.9722 13.3488 18.9722 10.7722V7.17698C18.9722 6.28409 18.9722 5.83764 18.8693 5.47229C18.7422 5.02301 18.5021 4.61379 18.1719 4.28363C17.8418 3.95347 17.4325 3.7134 16.9833 3.58629C16.6188 3.48333 16.1724 3.48333 15.2795 3.48333C14.946 3.48333 14.7784 3.48333 14.6235 3.456C14.2389 3.38899 13.886 3.20024 13.6167 2.91753C13.5074 2.80273 13.235 2.39456 13.05 2.11667C12.6892 1.57456 12.5088 1.30396 12.2619 1.11809C12.1112 1.0042 11.9436 0.91445 11.7653 0.852044C11.4738 0.75 11.1476 0.75 10.4962 0.75Z" stroke="#363636" stroke-width="1.5" stroke-linecap="round" stroke-linejoin="round"/>
</svg>
