<svg width="12" height="12" viewBox="0 0 12 12" fill="none" xmlns="http://www.w3.org/2000/svg">
<path d="M7.87207 0.0078125C8.07491 0.0078125 8.23921 0.172117 8.23926 0.375V1.12305H11.25C11.2851 1.12305 11.3197 1.12521 11.3535 1.12988H11.25V1.13086C11.6599 1.13086 11.9922 1.46325 11.9922 1.87305V11.25C11.9921 11.6599 11.6598 11.9922 11.25 11.9922H0.75C0.340187 11.9922 0.00790731 11.6599 0.0078125 11.25V1.87305C0.0078125 1.46308 0.340129 1.12988 0.75 1.12988H3.74707V1.12207H3.75488V0.375C3.75493 0.172219 3.91937 0.00797694 4.12207 0.0078125C4.32491 0.0078125 4.48921 0.172117 4.48926 0.375V1.12207H4.49707V1.12988H7.49707V1.12207H7.50488V0.375C7.50493 0.172219 7.66937 0.00797694 7.87207 0.0078125ZM0.75 1.87305H0.742188V11.25H0.75V11.2578H11.25V11.25H11.2578V1.87305H11.25V1.86523H8.24707V1.87305H8.23926V2.25098C8.23912 2.45378 8.07485 2.61816 7.87207 2.61816C7.66943 2.618 7.50502 2.45368 7.50488 2.25098V1.87305H7.49707V1.86523H4.49707V1.87305H4.48926V2.25098C4.48902 2.45368 4.32479 2.61816 4.12207 2.61816C3.91949 2.618 3.75512 2.45358 3.75488 2.25098V1.87305H3.74707V1.86523H0.75V1.87305ZM2.625 7.50684H3.375C3.57768 7.50684 3.74219 7.67147 3.74219 7.87402V8.62402C3.74219 8.82694 3.57769 8.99121 3.375 8.99121H2.625C2.42231 8.99121 2.25781 8.82694 2.25781 8.62402V7.87402C2.25781 7.67129 2.42232 7.50684 2.625 7.50684ZM5.625 7.50684H6.375C6.57768 7.50684 6.74219 7.67147 6.74219 7.87402V8.62402C6.74219 8.82694 6.57769 8.99121 6.375 8.99121H5.625C5.42231 8.99121 5.25781 8.82694 5.25781 8.62402V7.87402C5.25781 7.67129 5.42232 7.50684 5.625 7.50684ZM8.625 7.50684H9.375C9.57768 7.50684 9.74219 7.67129 9.74219 7.87402V8.62402C9.74219 8.82694 9.57769 8.99121 9.375 8.99121H8.625C8.42231 8.99121 8.25781 8.82713 8.25781 8.62402V7.87402C8.25781 7.67129 8.42232 7.50684 8.625 7.50684ZM2.625 4.50586H3.375C3.57753 4.50586 3.74194 4.67034 3.74219 4.87305V5.62402C3.742 5.8266 3.57757 5.99121 3.375 5.99121H2.625C2.42243 5.99121 2.258 5.8266 2.25781 5.62402V4.87305C2.25806 4.67052 2.42247 4.50586 2.625 4.50586ZM5.625 4.50586H6.375C6.57753 4.50586 6.74194 4.67034 6.74219 4.87305V5.62402C6.742 5.8266 6.57757 5.99121 6.375 5.99121H5.625C5.42243 5.99121 5.258 5.8266 5.25781 5.62402V4.87305C5.25806 4.67052 5.42247 4.50586 5.625 4.50586ZM8.625 4.50586H9.375C9.57753 4.50586 9.74194 4.67052 9.74219 4.87305V5.62402C9.742 5.8266 9.57757 5.99121 9.375 5.99121H8.625C8.42243 5.99121 8.258 5.8266 8.25781 5.62402V4.87305C8.25806 4.67052 8.42247 4.50586 8.625 4.50586Z" fill="#696969" stroke="#9C9C9C" stroke-width="0.015625"/>
</svg>
