<svg width="20" height="20" viewBox="0 0 20 20" fill="none" xmlns="http://www.w3.org/2000/svg">
<path d="M19.2501 10C19.2517 11.2145 19.0136 12.4173 18.5494 13.5396C18.0852 14.6618 17.4041 15.6815 16.5451 16.54C15.6858 17.3996 14.6654 18.0814 13.5423 18.5464C12.4193 19.0114 11.2156 19.2505 10.0001 19.25C8.69194 19.2529 7.39817 18.9767 6.20515 18.44L2.33815 19.012C2.14615 19.0433 1.9494 19.0274 1.76498 18.9654C1.58057 18.9034 1.41407 18.7974 1.27995 18.6565C1.14583 18.5155 1.04814 18.344 0.995373 18.1568C0.942603 17.9695 0.936346 17.7722 0.977146 17.582L1.51415 13.659C1.00334 12.5072 0.74293 11.26 0.750146 10C0.748593 8.78553 0.98673 7.5827 1.45091 6.46044C1.91508 5.33817 2.59618 4.31855 3.45515 3.46C4.31453 2.60042 5.33491 1.91864 6.45795 1.45364C7.58098 0.98864 8.78465 0.749538 10.0001 0.750001C12.4548 0.750164 14.8089 1.72491 16.5451 3.46C17.4037 4.31888 18.0845 5.33856 18.5486 6.46075C19.0128 7.58294 19.2512 8.78561 19.2501 10Z" stroke="#363636" stroke-width="1.5" stroke-linecap="round" stroke-linejoin="round"/>
<path d="M9.99788 10.6116C10.1598 10.6116 10.3151 10.5473 10.4296 10.4328C10.5441 10.3183 10.6084 10.163 10.6084 10.0011C10.6084 9.83921 10.5441 9.68393 10.4296 9.56944C10.3151 9.45495 10.1598 9.39062 9.99788 9.39062C9.83596 9.39062 9.68068 9.45495 9.56619 9.56944C9.4517 9.68393 9.38737 9.83921 9.38737 10.0011C9.38737 10.163 9.4517 10.3183 9.56619 10.4328C9.68068 10.5473 9.83596 10.6116 9.99788 10.6116ZM14.2769 10.6116C14.4388 10.6116 14.5941 10.5473 14.7086 10.4328C14.8231 10.3183 14.8874 10.163 14.8874 10.0011C14.8874 9.83921 14.8231 9.68393 14.7086 9.56944C14.5941 9.45495 14.4388 9.39062 14.2769 9.39062C14.115 9.39062 13.9597 9.45495 13.8452 9.56944C13.7307 9.68393 13.6664 9.83921 13.6664 10.0011C13.6664 10.163 13.7307 10.3183 13.8452 10.4328C13.9597 10.5473 14.115 10.6116 14.2769 10.6116ZM5.71888 10.6116C5.79905 10.6117 5.87845 10.596 5.95254 10.5653C6.02664 10.5347 6.09397 10.4898 6.15071 10.4332C6.20745 10.3765 6.25247 10.3093 6.28321 10.2352C6.31395 10.1612 6.32981 10.0818 6.32987 10.0016C6.32994 9.92145 6.31421 9.84205 6.2836 9.76796C6.25298 9.69386 6.20806 9.62653 6.15142 9.56979C6.09477 9.51305 6.02751 9.46803 5.95347 9.43729C5.87942 9.40655 5.80005 9.39069 5.71988 9.39062C5.55796 9.39063 5.40268 9.45495 5.28819 9.56944C5.1737 9.68393 5.10938 9.83921 5.10938 10.0011C5.10938 10.163 5.1737 10.3183 5.28819 10.4328C5.40268 10.5473 5.55696 10.6116 5.71888 10.6116Z" stroke="#363636" stroke-width="1.5" stroke-linecap="round" stroke-linejoin="round"/>
</svg>
