<svg width="15" height="13" viewBox="0 0 15 13" fill="none" xmlns="http://www.w3.org/2000/svg">
<path d="M2.59867 12.5H12.4006M7.19299 0.672632C7.22321 0.620348 7.2676 0.576749 7.32155 0.546384C7.37549 0.516018 7.43699 0.5 7.49965 0.5C7.56231 0.5 7.62381 0.516018 7.67775 0.546384C7.7317 0.576749 7.77609 0.620348 7.80631 0.672632L9.87313 4.41012C9.92241 4.49666 9.99121 4.57173 10.0746 4.62995C10.1579 4.68817 10.2538 4.72808 10.3552 4.74682C10.4567 4.76557 10.5613 4.76268 10.6614 4.73837C10.7616 4.71405 10.8549 4.66891 10.9345 4.60619L13.929 2.16256C13.9865 2.11802 14.0574 2.09201 14.1314 2.08826C14.2053 2.08452 14.2787 2.10323 14.3408 2.14171C14.4029 2.1802 14.4506 2.23646 14.477 2.30241C14.5034 2.36835 14.5072 2.44058 14.4878 2.50869L12.5036 9.34208C12.4631 9.48191 12.3758 9.60535 12.255 9.69369C12.1342 9.78203 11.9865 9.83045 11.8342 9.83161H3.16578C3.01338 9.83059 2.8655 9.78224 2.74457 9.69389C2.62364 9.60554 2.53628 9.48202 2.49575 9.34208L0.512249 2.50936C0.49282 2.44125 0.496581 2.36902 0.522989 2.30307C0.549398 2.23713 0.597093 2.18086 0.659209 2.14238C0.721324 2.1039 0.794656 2.08518 0.868648 2.08893C0.94264 2.09267 1.01348 2.11869 1.07096 2.16322L4.06476 4.60686C4.14444 4.66958 4.2377 4.71472 4.33786 4.73903C4.43802 4.76335 4.54259 4.76624 4.64406 4.74749C4.74553 4.72875 4.84138 4.68883 4.92474 4.63062C5.00809 4.5724 5.07689 4.49733 5.12617 4.41078L7.19299 0.672632Z" stroke="#F4A20B" stroke-linecap="round" stroke-linejoin="round"/>
</svg>
