<svg width="30" height="30" viewBox="0 0 30 30" fill="none" xmlns="http://www.w3.org/2000/svg">
<path fill-rule="evenodd" clip-rule="evenodd" d="M20.8732 19.5838L22.6912 12.6646L20.0344 14.3566C19.5047 14.6944 18.8635 14.8109 18.2488 14.6813C17.634 14.5516 17.0946 14.186 16.7464 13.663L14.998 11.0362L13.2484 13.6642C12.9 14.187 12.3606 14.5523 11.7458 14.6818C11.1311 14.8113 10.4901 14.6945 9.96043 14.3566L7.30483 12.6646L9.12283 19.5838H20.8732ZM7.94923 11.6518C7.02883 11.065 5.86603 11.9134 6.14323 12.9694L7.96243 19.8886C8.02977 20.1451 8.18016 20.372 8.39009 20.5339C8.60002 20.6959 8.85768 20.7838 9.12283 20.7838H20.8732C21.1384 20.7838 21.396 20.6959 21.606 20.5339C21.8159 20.372 21.9663 20.1451 22.0336 19.8886L23.8528 12.9694C24.1288 11.9134 22.9672 11.0662 22.0468 11.6518L19.39 13.3438C19.1253 13.5128 18.8048 13.5713 18.4975 13.5067C18.1901 13.4421 17.9203 13.2595 17.746 12.9982L15.9964 10.3702C15.8868 10.2059 15.7384 10.0711 15.5642 9.9779C15.39 9.8847 15.1956 9.83594 14.998 9.83594C14.8005 9.83594 14.606 9.8847 14.4318 9.9779C14.2577 10.0711 14.1092 10.2059 13.9996 10.3702L12.25 12.9982C12.0759 13.2597 11.8062 13.4425 11.4988 13.5073C11.1915 13.5722 10.8709 13.5139 10.606 13.345L7.94923 11.6518Z" fill="#F4A20B"/>
<path d="M16.1309 7.73436C16.1312 8.03512 16.012 8.32368 15.7996 8.53657C15.5871 8.74946 15.2988 8.86924 14.9981 8.86956C14.6973 8.86988 14.4088 8.75071 14.1959 8.53827C13.983 8.32583 13.8632 8.03752 13.8629 7.73676C13.8626 7.43601 13.9817 7.14744 14.1942 6.93455C14.4066 6.72166 14.6949 6.60188 14.9957 6.60156C15.2964 6.60124 15.585 6.72041 15.7979 6.93286C16.0108 7.1453 16.1306 7.43361 16.1309 7.73436ZM25.1981 10.0036C25.1982 10.1525 25.1689 10.3 25.112 10.4376C25.0551 10.5752 24.9716 10.7002 24.8664 10.8056C24.7611 10.911 24.6361 10.9946 24.4986 11.0516C24.361 11.1087 24.2136 11.1381 24.0647 11.1382C23.9158 11.1382 23.7683 11.109 23.6307 11.0521C23.4931 10.9952 23.368 10.9117 23.2626 10.8064C23.1573 10.7012 23.0737 10.5762 23.0166 10.4387C22.9596 10.3011 22.9302 10.1537 22.9301 10.0048C22.9301 9.70401 23.0495 9.41557 23.2622 9.2029C23.4749 8.99024 23.7633 8.87076 24.0641 8.87076C24.3648 8.87076 24.6533 8.99024 24.8659 9.2029C25.0786 9.41557 25.1981 9.70281 25.1981 10.0036ZM7.06487 10.0036C7.06503 10.3043 6.94571 10.5928 6.73316 10.8056C6.5206 11.0184 6.23223 11.138 5.93147 11.1382C5.78256 11.1382 5.63508 11.109 5.49747 11.0521C5.35985 10.9952 5.2348 10.9117 5.12944 10.8064C4.91666 10.5939 4.79703 10.3055 4.79688 10.0048C4.79687 9.70401 4.91635 9.41557 5.12902 9.2029C5.34168 8.99024 5.63012 8.87076 5.93087 8.87076C6.23163 8.87076 6.52007 8.99024 6.73273 9.2029C6.9454 9.41557 7.06487 9.70281 7.06487 10.0036Z" fill="#F4A20B"/>
<path fill-rule="evenodd" clip-rule="evenodd" d="M9.29688 22.2016C9.29688 22.0424 9.36009 21.8898 9.47261 21.7773C9.58513 21.6648 9.73775 21.6016 9.89688 21.6016H20.3813C20.5404 21.6016 20.693 21.6648 20.8055 21.7773C20.9181 21.8898 20.9813 22.0424 20.9813 22.2016C20.9813 22.3607 20.9181 22.5133 20.8055 22.6258C20.693 22.7383 20.5404 22.8016 20.3813 22.8016H9.89688C9.73775 22.8016 9.58513 22.7383 9.47261 22.6258C9.36009 22.5133 9.29688 22.3607 9.29688 22.2016Z" fill="#F4A20B"/>
<path fill-rule="evenodd" clip-rule="evenodd" d="M15 28.8C22.6212 28.8 28.8 22.6212 28.8 15C28.8 7.3788 22.6212 1.2 15 1.2C7.3788 1.2 1.2 7.3788 1.2 15C1.2 22.6212 7.3788 28.8 15 28.8ZM15 30C23.2848 30 30 23.2848 30 15C30 6.7152 23.2848 0 15 0C6.7152 0 0 6.7152 0 15C0 23.2848 6.7152 30 15 30Z" fill="#F4A20B"/>
</svg>
