<svg width="50" height="50" viewBox="0 0 50 50" fill="none" xmlns="http://www.w3.org/2000/svg">
<rect x="0.5" y="0.5" width="49" height="49" rx="3.5" fill="white" stroke="#BEBEBE"/>
<path d="M32.8792 25.4694C32.9222 30.1605 36.9555 31.7218 37 31.7418C36.9659 31.8516 36.3557 33.9666 34.8753 36.1507C33.5957 38.0391 32.2673 39.9206 30.1753 39.96C28.1196 39.9979 27.4585 38.7288 25.1079 38.7288C22.7581 38.7288 22.0239 39.9206 20.0777 39.9979C18.0581 40.0753 16.5201 37.9556 15.2298 36.0744C12.5933 32.2256 10.5784 25.1987 13.2838 20.4554C14.6278 18.0998 17.03 16.6084 19.637 16.57C21.6201 16.5318 23.4919 17.9169 24.7041 17.9169C25.9156 17.9169 28.1902 16.2511 30.5816 16.4956C31.5827 16.5378 34.3927 16.9038 36.197 19.5708C36.052 19.6619 32.8444 21.5473 32.8792 25.4694ZM29.0157 13.9496C30.0878 12.6394 30.8094 10.8148 30.6127 9C29.0671 9.06263 27.1982 10.0398 26.0898 11.3496C25.0963 12.5091 24.2264 14.3656 24.4609 16.1445C26.1837 16.2792 27.9434 15.2607 29.0157 13.9496Z" fill="black"/>
</svg>
