<svg width="20" height="20" viewBox="0 0 20 20" fill="none" xmlns="http://www.w3.org/2000/svg">
<path d="M10 0.5C15.2469 0.5 19.5 4.75314 19.5 10C19.5 15.2469 15.2469 19.5 10 19.5C4.75314 19.5 0.5 15.2469 0.5 10C0.5 4.75314 4.75314 0.5 10 0.5ZM10 1.5C7.74566 1.5 5.58332 2.3952 3.98926 3.98926C2.3952 5.58332 1.5 7.74566 1.5 10C1.5 12.2543 2.3952 14.4167 3.98926 16.0107C5.58332 17.6048 7.74566 18.5 10 18.5C12.2543 18.5 14.4167 17.6048 16.0107 16.0107C17.6048 14.4167 18.5 12.2543 18.5 10C18.5 7.74566 17.6048 5.58332 16.0107 3.98926C14.4167 2.3952 12.2543 1.5 10 1.5ZM10 4.5C10.1223 4.50003 10.2406 4.54475 10.332 4.62598C10.4235 4.70733 10.4817 4.81983 10.4961 4.94141L10.5 5.0127V9.79297L13.3535 12.6465C13.4428 12.7363 13.4941 12.8568 13.498 12.9834C13.5019 13.1104 13.458 13.2348 13.374 13.3301C13.29 13.4253 13.1723 13.485 13.0459 13.4971C12.9225 13.5088 12.7994 13.4734 12.7002 13.3994L12.6309 13.3379L9.64648 10.3535C9.57 10.2769 9.52104 10.1774 9.50586 10.0703L9.5 9.97949V5C9.5 4.86739 9.55272 4.74025 9.64648 4.64648C9.74025 4.55272 9.86739 4.5 10 4.5Z" fill="#E37528" stroke="#E37528"/>
</svg>
