<svg width="191" height="26" viewBox="0 0 191 26" fill="none" xmlns="http://www.w3.org/2000/svg">
<path d="M4.69474 9.30304C4.69474 10.3899 3.81316 11.2715 2.72237 11.2715C1.6329 11.2715 0.75 10.3899 0.75 9.30304C0.75 8.2162 1.6329 7.33594 2.72368 7.33594C3.81184 7.33594 4.69474 8.21752 4.69474 9.30304Z" stroke="#C07272" stroke-width="1.5"/>
<path d="M7.28487 0.75L8.41382 8.34342C8.45329 8.59956 8.47259 8.85658 8.47171 9.11447V9.21974C8.47171 9.49605 8.44276 9.7693 8.38487 10.0395L8.31908 10.3461C8.29655 10.4513 8.2612 10.5534 8.21382 10.65L4.6875 17.8408M9.20329 8.32105L16.4638 11.3539L17.1993 11.6724C17.6441 11.8658 17.9836 12.2421 18.1296 12.7039L21.8059 24.4329M7.99934 12.5382L14.7428 15.1855M14.7428 15.1855L11.3007 24.2671M14.7428 15.1855L17.6151 12.3368" stroke="#C07272" stroke-width="1.5" stroke-linecap="round" stroke-linejoin="round"/>
<path d="M48.9083 2.72368C48.9083 3.24714 48.7004 3.74915 48.3302 4.11929C47.9601 4.48943 47.4581 4.69737 46.9346 4.69737C46.4112 4.69737 45.9092 4.48943 45.539 4.11929C45.1689 3.74915 44.9609 3.24714 44.9609 2.72368C44.9609 2.20023 45.1689 1.69822 45.539 1.32808C45.9092 0.957941 46.4112 0.75 46.9346 0.75C47.4581 0.75 47.9601 0.957941 48.3302 1.32808C48.7004 1.69822 48.9083 2.20023 48.9083 2.72368Z" stroke="#C07272" stroke-width="1.5"/>
<path d="M46.2784 24.436L45.4047 20.9952C45.1141 19.8524 44.5156 18.8111 43.6744 17.9847L41.6731 16.015M41.6731 16.015C40.3481 14.9702 39.6836 14.4479 39.4271 13.7492C39.3125 13.4386 39.2576 13.1091 39.2652 12.7781C39.2836 12.0334 39.7428 11.3255 40.6599 9.9097L42.331 7.33207M41.6731 16.015L46.2784 9.01102M34.4363 11.4794C35.7521 8.88734 37.7757 7.38734 42.331 7.33207M42.331 7.33207C42.6192 7.32944 43.0468 7.32813 43.4757 7.32813C44.1402 7.32813 44.4718 7.32812 44.7363 7.45181C45.0007 7.57549 45.2731 7.89918 45.8152 8.54786C45.9705 8.7347 46.131 8.90049 46.2784 9.01102M46.2784 9.01102C47.7981 10.1505 50.1771 10.6097 52.8573 7.5926M31.8047 20.1334L32.6968 20.3465C34.9718 20.886 37.335 19.8518 38.3836 17.8571" stroke="#C07272" stroke-width="1.5" stroke-linecap="round" stroke-linejoin="round"/>
<path d="M77.3302 2.72368C77.3302 3.24714 77.1222 3.74915 76.7521 4.11929C76.382 4.48943 75.88 4.69737 75.3565 4.69737C74.833 4.69737 74.331 4.48943 73.9609 4.11929C73.5908 3.74915 73.3828 3.24714 73.3828 2.72368C73.3828 2.20023 73.5908 1.69822 73.9609 1.32808C74.331 0.957941 74.833 0.75 75.3565 0.75C75.88 0.75 76.382 0.957941 76.7521 1.32808C77.1222 1.69822 77.3302 2.20023 77.3302 2.72368Z" stroke="#C07272" stroke-width="1.5"/>
<path d="M62.8594 12.5945L64.8015 9.53402C65.1436 8.99455 65.316 8.7235 65.541 8.50376C65.7646 8.28402 66.0331 8.12218 66.5699 7.80113L67.7831 7.0735C68.9173 6.39192 69.4844 6.05113 70.112 6.01823C70.7396 5.98534 71.3357 6.26429 72.5317 6.82086L74.762 7.86297C75.2528 8.09192 75.4988 8.20507 75.7133 8.36692C75.866 8.48095 76.0054 8.61034 76.1317 8.75507C76.3094 8.96034 76.4475 9.20244 76.7238 9.68665C77.2107 10.538 77.4541 10.963 77.7975 11.2643C78.0396 11.4748 78.316 11.6393 78.6133 11.7485C79.0344 11.9038 79.5081 11.9038 80.4528 11.9038H81.2804M71.412 6.6735L66.8067 15.2261M66.8067 15.2261L68.7107 17.8919C69.0901 18.4232 69.2585 19.0766 69.1831 19.7251C69.1078 20.3737 68.794 20.971 68.3028 21.4011L64.8331 24.4367M66.8067 15.2261H71.412M71.412 15.2261H73.3857C73.7942 15.2261 74.1972 15.3212 74.5626 15.504C74.928 15.6867 75.2458 15.9519 75.491 16.2788L78.6488 20.4893M71.412 15.2261L76.0173 8.64718" stroke="#C07272" stroke-width="1.5" stroke-linecap="round" stroke-linejoin="round"/>
<path d="M103.119 4.04009C103.119 4.56354 102.911 5.06556 102.541 5.4357C102.171 5.80583 101.669 6.01377 101.146 6.01377C100.622 6.01377 100.12 5.80583 99.75 5.4357C99.3798 5.06556 99.1719 4.56354 99.1719 4.04009C99.1719 3.51664 99.3798 3.01462 99.75 2.64448C100.12 2.27435 100.622 2.06641 101.146 2.06641C101.669 2.06641 102.171 2.27435 102.541 2.64448C102.911 3.01462 103.119 3.51664 103.119 4.04009Z" stroke="#C07272" stroke-width="1.5"/>
<path d="M100.967 16.5395L102.209 15.8211C103.624 15.0026 104.33 14.5934 104.425 14.0105C104.439 13.9196 104.443 13.8274 104.438 13.7355C104.391 13.1487 103.72 12.6961 102.379 11.7908L96.1854 7.61053C93.7525 5.96842 93.1933 2.97368 94.9012 0.75" stroke="#C07272" stroke-width="1.5" stroke-linecap="round" stroke-linejoin="round"/>
<path d="M96.1839 7.61053C92.8944 10.9 91.2812 20.0026 91.2812 24.4342M96.1839 7.61053C93.751 5.96842 93.1918 2.97368 94.8997 0.75M96.1839 7.61053L99.6655 9.96053M100.965 16.5395L102.208 15.8211C103.622 15.0026 104.329 14.5934 104.423 14.0105C104.437 13.9196 104.442 13.8274 104.437 13.7355C104.389 13.1487 103.718 12.6961 102.377 11.7908L99.6668 9.96053C98.7543 11.1414 97.9734 12.4182 97.3378 13.7684C96.7589 14.9882 96.4707 15.5974 96.5247 16.2947L92.597 15.2237M101.808 24.4342C100.527 22.9408 99.2102 20.8816 97.926 18.9842C97.0273 17.6553 96.5773 16.9895 96.5247 16.2934" stroke="#C07272" stroke-width="1.5" stroke-linecap="round" stroke-linejoin="round"/>
<path d="M154.705 2.72368C154.705 3.24714 154.497 3.74915 154.127 4.11929C153.757 4.48943 153.255 4.69737 152.731 4.69737C152.208 4.69737 151.706 4.48943 151.336 4.11929C150.966 3.74915 150.758 3.24714 150.758 2.72368C150.758 2.20023 150.966 1.69822 151.336 1.32808C151.706 0.957941 152.208 0.75 152.731 0.75C153.255 0.75 153.757 0.957941 154.127 1.32808C154.497 1.69822 154.705 2.20023 154.705 2.72368Z" stroke="#C07272" stroke-width="1.5"/>
<path d="M152.003 24.4335L153.49 19.9467C154.021 18.348 154.287 17.548 153.89 16.994C153.493 16.4414 152.653 16.4414 150.975 16.4414H149.351M149.351 16.4414L148.025 16.4401C146.778 16.4401 146.153 16.4401 145.755 15.9506C145.358 15.4585 145.471 14.9072 145.699 13.8019C146.08 11.9519 146.846 9.65323 148.245 8.09008C148.632 7.6585 148.824 7.44271 149.249 7.35323C149.674 7.26376 150.013 7.41902 150.692 7.72955L153.142 8.84797L154.172 9.31902C155.383 9.87165 155.988 10.148 156.626 10.119C157.265 10.0888 157.842 9.75718 158.997 9.09402L161.282 7.7835M149.351 16.4414C149.668 14.7111 150.871 10.7664 153.141 8.84797" stroke="#C07272" stroke-width="1.5" stroke-linecap="round" stroke-linejoin="round"/>
<path d="M118.385 4.04009C118.385 4.29928 118.334 4.55593 118.235 4.79539C118.135 5.03485 117.99 5.25242 117.807 5.4357C117.624 5.61897 117.406 5.76435 117.166 5.86354C116.927 5.96272 116.67 6.01377 116.411 6.01377C116.152 6.01377 115.895 5.96272 115.656 5.86354C115.416 5.76435 115.199 5.61897 115.016 5.4357C114.832 5.25242 114.687 5.03485 114.588 4.79539C114.489 4.55593 114.437 4.29928 114.438 4.04009C114.438 3.51664 114.645 3.01462 115.016 2.64448C115.386 2.27435 115.888 2.06641 116.411 2.06641C116.935 2.06641 117.437 2.27435 117.807 2.64448C118.177 3.01462 118.385 3.51664 118.385 4.04009Z" stroke="#C07272" stroke-width="1.5"/>
<path d="M120.948 15.2237H119.885C118.815 15.2237 118.28 15.2237 117.911 14.9118C117.54 14.6 117.454 14.075 117.277 13.025L117.176 12.4211C117.081 11.8579 117.034 11.575 117.104 11.3066C117.172 11.0382 117.35 10.8132 117.705 10.3632L119.35 8.28158M122.05 4.69737L120.618 6.67105L119.347 8.28158L126.236 13.25M124.915 0.75L122.051 4.69737L127.972 9.30263M127.972 9.30263L135.49 0.75M127.972 9.30263L126.236 13.25M126.236 13.25V24.4342" stroke="#C07272" stroke-width="1.5" stroke-linecap="round" stroke-linejoin="round"/>
<path d="M183.783 2.72368C183.783 3.24714 183.575 3.74915 183.205 4.11929C182.835 4.48943 182.333 4.69737 181.81 4.69737C181.286 4.69737 180.784 4.48943 180.414 4.11929C180.044 3.74915 179.836 3.24714 179.836 2.72368C179.836 2.20023 180.044 1.69822 180.414 1.32808C180.784 0.957941 181.286 0.75 181.81 0.75C182.333 0.75 182.835 0.957941 183.205 1.32808C183.575 1.69822 183.783 2.20023 183.783 2.72368Z" stroke="#C07272" stroke-width="1.5"/>
<path d="M189.702 8.49959L183.094 7.71143M183.094 7.71143L180.785 7.43643C179.729 7.31011 179.201 7.24696 178.801 7.51801C178.401 7.78906 178.254 8.30748 177.962 9.34432L177.083 12.4654C176.575 14.2654 176.321 15.1667 176.797 15.7114C177.272 16.2562 178.184 16.1101 180.008 15.818L180.676 15.7114M183.094 7.71143L180.676 15.7114M189.702 24.4338L189.102 19.868C188.768 17.3312 188.602 16.0627 187.717 15.3943C186.833 14.7246 185.587 14.9246 183.094 15.3233L180.676 15.7114M177.86 19.1706L177.133 20.6259C176.751 21.3894 176.132 22.0085 175.368 22.3904L171.281 24.4338" stroke="#C07272" stroke-width="1.5" stroke-linecap="round" stroke-linejoin="round"/>
</svg>
