<svg width="50" height="50" viewBox="0 0 50 50" fill="none" xmlns="http://www.w3.org/2000/svg">
<rect x="0.5" y="0.5" width="49" height="49" rx="3.5" fill="white" stroke="#BEBEBE"/>
<path d="M40.9995 25.4997C40.9995 16.9395 34.0599 10 25.4997 10C16.9395 10 10 16.9395 10 25.4997C10 33.236 15.6681 39.6485 23.0779 40.8112V29.9801H19.1424V25.4997H23.0779V22.0849C23.0779 18.2003 25.392 16.0546 28.9324 16.0546C30.6282 16.0546 32.402 16.3573 32.402 16.3573V20.1717H30.4475C28.5221 20.1717 27.9216 21.3665 27.9216 22.5923V25.4997H32.2203L31.5331 29.9801H27.9216V40.8112C35.3314 39.6485 40.9995 33.2362 40.9995 25.4997Z" fill="#1877F2"/>
<path d="M31.5313 29.9802L32.2185 25.4998H27.9198V22.5924C27.9198 21.3665 28.5203 20.1718 30.4457 20.1718H32.4002V16.3574C32.4002 16.3574 30.6264 16.0547 28.9305 16.0547C25.3902 16.0547 23.0761 18.2004 23.0761 22.0851V25.4998H19.1406V29.9802H23.0761V40.8113C23.8773 40.9368 24.687 40.9998 25.4979 40.9996C26.3089 40.9998 27.1186 40.9368 27.9198 40.8113V29.9802H31.5313Z" fill="white"/>
</svg>
