<svg width="17" height="19" viewBox="0 0 17 19" fill="none" xmlns="http://www.w3.org/2000/svg">
<path fill-rule="evenodd" clip-rule="evenodd" d="M6.77339 0L7.92379 0.690245C9.38291 1.55275 10.5038 2.88756 11.1011 4.47381C11.3038 4.0173 11.5448 3.57448 11.7685 3.1271L12.6642 4.02278C14.6747 6.03325 16.5838 9.04623 16.5838 11.9725C16.5838 15.8966 14.1643 18.3846 10.2931 18.8147L9.02399 18.9553L9.30155 17.709C9.51793 16.7339 9.55719 16.0966 9.51154 15.6501C9.45676 15.0886 9.19016 14.6476 8.85782 14.2094C8.54008 13.7894 8.22509 13.3685 7.9731 12.9037C6.93682 13.7227 6.53509 14.4623 6.40635 15.0713C6.24201 15.851 6.47483 16.6481 6.9003 17.499L7.6508 19L5.98362 18.8147C3.63168 18.5535 1.31442 16.9822 0.401402 14.6896C-0.552707 12.2911 0.122017 9.38861 3.20438 6.71711C5.24955 4.94493 6.3324 2.64685 6.77339 0ZM7.98953 3.01297C7.29381 4.96684 5.95806 6.74724 4.39953 8.0976C1.74172 10.4012 1.50342 12.5203 2.09871 14.014C2.54153 15.1279 3.49746 16.0436 4.63052 16.5631C4.49814 15.9479 4.49441 15.3119 4.61957 14.6951C4.91721 13.2836 5.93249 11.9606 7.88271 10.7417L8.86603 10.1272L9.23307 11.2274C9.55445 12.1916 10.221 12.8736 10.7423 13.72C11.3157 14.6513 11.4252 15.7195 11.3084 16.7859C13.7005 16.1879 14.7578 14.3737 14.7578 11.9725C14.7578 9.94373 13.5343 7.95334 12.32 6.39755C11.8197 7.51874 10.7651 7.91317 9.73614 8.42811V6.95084C9.73614 5.70091 9.22759 4.17708 7.98953 3.01389V3.01297Z" fill="#FF6900"/>
</svg>
