<svg width="26" height="29" viewBox="0 0 26 29" fill="none" xmlns="http://www.w3.org/2000/svg">
<path fill-rule="evenodd" clip-rule="evenodd" d="M10.6193 0L12.4229 1.05353C14.7105 2.36999 16.4678 4.40733 17.4043 6.82845C17.722 6.13167 18.0999 5.45579 18.4506 4.77294L19.8549 6.14003C23.0069 9.20865 26 13.8074 26 18.2738C26 24.2633 22.2067 28.0607 16.1374 28.7171L14.1477 28.9317L14.5829 27.0295C14.9222 25.5412 14.9837 24.5685 14.9121 23.887C14.8262 23.03 14.4083 22.3569 13.8872 21.688C13.3891 21.0469 12.8952 20.4045 12.5002 19.6952C10.8755 20.9452 10.2457 22.074 10.0438 23.0035C9.78618 24.1936 10.1512 25.4102 10.8182 26.709L11.9949 29L9.38109 28.7171C5.69372 28.3185 2.06075 25.9202 0.629315 22.421C-0.86653 18.7601 0.191297 14.33 5.02381 10.2524C8.23021 7.54752 9.92789 4.03993 10.6193 0ZM12.5259 4.59875C11.4352 7.58097 9.341 10.2984 6.89755 12.3595C2.73066 15.8754 2.35705 19.1099 3.29035 21.3898C3.98459 23.0899 5.4833 24.4876 7.2597 25.2806C7.05216 24.3415 7.04631 23.3708 7.24253 22.4294C7.70917 20.2749 9.30092 18.2556 12.3585 16.3952L13.9001 15.4574L14.4755 17.1366C14.9794 18.6082 16.0244 19.6492 16.8417 20.941C17.7406 22.3625 17.9124 23.9929 17.7292 25.6206C21.4795 24.7078 23.1371 21.9388 23.1371 18.2738C23.1371 15.1773 21.219 12.1393 19.3152 9.76468C18.5308 11.476 16.8775 12.078 15.2643 12.864V10.6092C15.2643 8.70139 14.467 6.37554 12.5259 4.60014V4.59875Z" fill="white"/>
</svg>
