<svg width="50" height="50" viewBox="0 0 50 50" fill="none" xmlns="http://www.w3.org/2000/svg">
<rect x="0.5" y="0.5" width="49" height="49" rx="3.5" fill="white" stroke="#BEBEBE"/>
<path d="M40.698 21.4641H39.4495V21.3998H25.4997V27.5997H34.2594C32.9815 31.2088 29.5475 33.7996 25.4997 33.7996C20.3639 33.7996 16.1999 29.6356 16.1999 24.4997C16.1999 19.3639 20.3639 15.1999 25.4997 15.1999C27.8704 15.1999 30.0272 16.0942 31.6694 17.5551L36.0535 13.171C33.2852 10.591 29.5824 9 25.4997 9C16.94 9 10 15.94 10 24.4997C10 33.0595 16.94 39.9995 25.4997 39.9995C34.0595 39.9995 40.9995 33.0595 40.9995 24.4997C40.9995 23.4605 40.8925 22.446 40.698 21.4641Z" fill="#FFC107"/>
<path d="M11.7969 17.2854L16.8893 21.02C18.2672 17.6086 21.6043 15.1999 25.5095 15.1999C27.8802 15.1999 30.037 16.0942 31.6792 17.5551L36.0633 13.171C33.295 10.591 29.5921 9 25.5095 9C19.556 9 14.3931 12.3611 11.7969 17.2854Z" fill="#FF3D00"/>
<path d="M25.494 39.9986C29.4975 39.9986 33.1353 38.4664 35.8857 35.9748L31.0886 31.9155C29.4804 33.1392 27.5148 33.8008 25.494 33.7987C21.4625 33.7987 18.0394 31.228 16.7498 27.6406L11.6953 31.5349C14.2605 36.5545 19.47 39.9986 25.494 39.9986Z" fill="#4CAF50"/>
<path d="M40.6983 21.4628H39.4498V21.3984H25.5V27.5983H34.2597C33.6484 29.316 32.5472 30.817 31.0923 31.9158L31.0946 31.9142L35.8918 35.9736C35.5524 36.2821 40.9997 32.2483 40.9997 24.4984C40.9997 23.4591 40.8928 22.4447 40.6983 21.4628Z" fill="#1976D2"/>
</svg>
