<svg width="30" height="18" viewBox="0 0 30 18" fill="none" xmlns="http://www.w3.org/2000/svg">
<path d="M22.875 9C23.9577 9 25.6342 9.31254 27.0215 9.93652C27.7126 10.2474 28.2885 10.6161 28.6816 11.0234C29.0676 11.4234 29.25 11.8288 29.25 12.25V17.25H16.5V12.25C16.5 11.8288 16.6824 11.4234 17.0684 11.0234C17.4615 10.6161 18.0374 10.2474 18.7285 9.93652C20.1158 9.31254 21.7923 9 22.875 9ZM7.125 9C8.2077 9 9.88416 9.31254 11.2715 9.93652C11.9626 10.2474 12.5385 10.6161 12.9316 11.0234C13.3176 11.4234 13.5 11.8288 13.5 12.25V17.25H0.75V12.25C0.75 11.8288 0.93235 11.4234 1.31836 11.0234C1.71147 10.6161 2.28737 10.2474 2.97852 9.93652C4.36584 9.31254 6.0423 9 7.125 9ZM7.125 0.75C8.57529 0.75 9.75 1.92471 9.75 3.375C9.75 4.07119 9.47373 4.73916 8.98145 5.23145C8.48916 5.72373 7.82119 6 7.125 6C6.42881 6 5.76084 5.72373 5.26855 5.23145C4.77627 4.73916 4.5 4.07119 4.5 3.375L4.51367 3.10645C4.64808 1.78243 5.76539 0.75 7.125 0.75ZM22.875 0.75C24.3253 0.75 25.5 1.92471 25.5 3.375C25.5 4.07119 25.2237 4.73916 24.7314 5.23145C24.2392 5.72373 23.5712 6 22.875 6C22.1788 6 21.5108 5.72373 21.0186 5.23145C20.5263 4.73916 20.25 4.07119 20.25 3.375C20.25 1.92471 21.4247 0.75 22.875 0.75ZM15 0.75C15.3978 0.75 15.7792 0.908149 16.0605 1.18945C16.3419 1.47076 16.5 1.85217 16.5 2.25L16.4922 2.39844C16.458 2.74174 16.3066 3.06446 16.0605 3.31055C15.7792 3.59185 15.3978 3.75 15 3.75L14.8516 3.74219C14.5083 3.70805 14.1855 3.55663 13.9395 3.31055C13.6581 3.02924 13.5 2.64783 13.5 2.25C13.5 1.85217 13.6581 1.47076 13.9395 1.18945C14.2208 0.908149 14.6022 0.75 15 0.75Z" stroke="#505050" stroke-width="1.5"/>
<path d="M14.9932 7.25C15.5971 7.25003 16.4418 7.38578 17.2578 7.64844C16.5124 8.01123 15.7702 8.47713 15.1602 9.07715L15.1592 9.07812C15.1034 9.13327 15.0477 9.18965 14.9932 9.24805C14.9387 9.18962 14.8822 9.13215 14.8252 9.07617C14.2151 8.47628 13.4728 8.01122 12.7266 7.64844C13.5433 7.38549 14.389 7.25 14.9932 7.25Z" stroke="#505050"/>
</svg>
