<svg width="324" height="264" viewBox="0 0 324 264" fill="none" xmlns="http://www.w3.org/2000/svg">
<path fill-rule="evenodd" clip-rule="evenodd" d="M141.347 11.9558C143.437 8.62523 146.446 5.85912 150.07 3.93585C153.695 2.01258 157.806 1 161.992 1C166.178 1 170.29 2.01258 173.914 3.93585C177.538 5.85912 180.547 8.62523 182.637 11.9558L319.807 230.168C321.899 233.495 323 237.269 323 241.112C323 244.954 321.899 248.728 319.807 252.056C317.716 255.383 314.708 258.146 311.085 260.067C307.462 261.988 303.353 263 299.17 263H24.8301C20.647 263 16.5376 261.988 12.915 260.067C9.29234 258.146 6.28408 255.383 4.19256 252.056C2.10105 248.728 0.999973 244.954 1 241.112C1.00003 237.269 2.10115 233.495 4.19271 230.168L141.363 11.9558H141.347Z" stroke="#A22E2E" stroke-width="2" stroke-dasharray="11 11"/>
</svg>
