<svg width="13" height="17" viewBox="0 0 13 17" fill="none" xmlns="http://www.w3.org/2000/svg">
<path d="M2.86102e-06 14.463V2.53699C-0.00069809 2.06617 0.135853 1.60477 0.393851 1.20622C0.65185 0.807664 1.02075 0.488243 1.45784 0.284932C1.97646 0.0469324 2.55346 -0.0447352 3.12308 0.0203747C3.69271 0.0854846 4.23206 0.304754 4.67967 0.653194L12.1146 6.6162C12.3926 6.85021 12.6154 7.13953 12.7682 7.46455C12.9209 7.78957 13 8.1427 13 8.5C13 8.8573 12.9209 9.21043 12.7682 9.53545C12.6154 9.86047 12.3926 10.1498 12.1146 10.3838L4.67967 16.3468C4.23206 16.6952 3.69271 16.9145 3.12308 16.9796C2.55346 17.0447 1.97646 16.9531 1.45784 16.7151C1.02075 16.5118 0.65185 16.1923 0.393851 15.7938C0.135853 15.3952 -0.00069809 14.9338 2.86102e-06 14.463Z" fill="#E37528"/>
</svg>
