<svg width="259" height="214" viewBox="0 0 259 214" fill="none" xmlns="http://www.w3.org/2000/svg">
<path fill-rule="evenodd" clip-rule="evenodd" d="M112.888 8.94866C114.569 6.22824 116.989 3.9689 119.904 2.39798C122.82 0.82707 126.127 0 129.494 0C132.86 0 136.168 0.82707 139.083 2.39798C141.998 3.9689 144.418 6.22824 146.1 8.94866L256.432 187.183C258.114 189.9 259 192.983 259 196.122C259 199.26 258.114 202.343 256.432 205.061C254.75 207.779 252.33 210.035 249.416 211.605C246.502 213.174 243.197 214 239.832 214H19.1677C15.803 214 12.4977 213.174 9.58379 211.605C6.66992 210.035 4.25024 207.779 2.56793 205.061C0.885627 202.343 -2.13693e-05 199.26 3.86711e-10 196.122C2.13701e-05 192.983 0.885712 189.9 2.56805 187.183L112.9 8.94866H112.888Z" fill="url(#paint0_linear_2_4944)"/>
<path fill-rule="evenodd" clip-rule="evenodd" d="M112.888 8.94866C114.569 6.22824 116.989 3.9689 119.904 2.39798C122.82 0.82707 126.127 0 129.494 0C132.86 0 136.168 0.82707 139.083 2.39798C141.998 3.9689 144.418 6.22824 146.1 8.94866L256.432 187.183C258.114 189.9 259 192.983 259 196.122C259 199.26 258.114 202.343 256.432 205.061C254.75 207.779 252.33 210.035 249.416 211.605C246.502 213.174 243.197 214 239.832 214H19.1677C15.803 214 12.4977 213.174 9.58379 211.605C6.66992 210.035 4.25024 207.779 2.56793 205.061C0.885627 202.343 -2.13693e-05 199.26 3.86711e-10 196.122C2.13701e-05 192.983 0.885712 189.9 2.56805 187.183L112.9 8.94866H112.888Z" fill="#E37528"/>
<defs>
<linearGradient id="paint0_linear_2_4944" x1="129.5" y1="0" x2="129.5" y2="214" gradientUnits="userSpaceOnUse">
<stop stop-color="#CD5500"/>
<stop offset="0.504808" stop-color="#DE752F"/>
<stop offset="1" stop-color="#CD5500"/>
</linearGradient>
</defs>
</svg>
