<svg width="21" height="21" viewBox="0 0 21 21" fill="none" xmlns="http://www.w3.org/2000/svg">
<path d="M5.92166 3.97656V5.71569M8.42144 3.97656V5.71569M12.5877 4.01308V5.75221M15.0875 3.97656V5.71569M3.42188 3.97656L5.92166 10.0635H15.0875L17.5873 3.97656H3.42188Z" stroke="#363636" stroke-miterlimit="10" stroke-linecap="round" stroke-linejoin="round"/>
<path d="M20.5 1.5C20.5 0.947715 20.0523 0.5 19.5 0.5H1.5C0.947716 0.5 0.5 0.947715 0.5 1.5V10.532V19.5C0.5 20.0523 0.947715 20.5 1.5 20.5H19.5C20.0523 20.5 20.5 20.0523 20.5 19.5V1.5Z" stroke="#363636" stroke-miterlimit="10" stroke-linecap="round" stroke-linejoin="round"/>
<path d="M11.7498 10.0642L10.4999 6.58594L9.25 10.0642H11.7498Z" stroke="#363636" stroke-miterlimit="10" stroke-linecap="round" stroke-linejoin="round"/>
</svg>
