<svg width="23" height="22" viewBox="0 0 23 22" fill="none" xmlns="http://www.w3.org/2000/svg">
<path d="M0.75 20.75H21.8026" stroke="#363636" stroke-width="1.5" stroke-linecap="round" stroke-linejoin="round"/>
<path d="M17.5925 14.433H17.602M17.5925 17.5909H17.602M4.96094 17.5909H4.97041M4.96094 14.433H4.97041M4.96094 11.2751H4.97041M4.96094 8.11719H4.97041" stroke="#363636" stroke-width="2" stroke-linecap="round" stroke-linejoin="round"/>
<path d="M6.84104 3.79421L15.7126 8.21316M7.06209 2.85526C7.06209 3.41361 6.84029 3.9491 6.44547 4.34391C6.05066 4.73872 5.51518 4.96053 4.95683 4.96053C4.39848 4.96053 3.86299 4.73872 3.46818 4.34391C3.07337 3.9491 2.85156 3.41361 2.85156 2.85526C2.85156 2.29691 3.07337 1.76143 3.46818 1.36662C3.86299 0.971804 4.39848 0.75 4.95683 0.75C5.51518 0.75 6.05066 0.971804 6.44547 1.36662C6.84029 1.76143 7.06209 2.29691 7.06209 2.85526ZM19.6937 9.17105C19.6937 9.7294 19.4719 10.2649 19.0771 10.6597C18.6822 11.0545 18.1468 11.2763 17.5884 11.2763C17.0301 11.2763 16.4946 11.0545 16.0998 10.6597C15.7049 10.2649 15.4831 9.7294 15.4831 9.17105C15.4831 8.6127 15.7049 8.07722 16.0998 7.68241C16.4946 7.28759 17.0301 7.06579 17.5884 7.06579C18.1468 7.06579 18.6822 7.28759 19.0771 7.68241C19.4719 8.07722 19.6937 8.6127 19.6937 9.17105Z" stroke="#363636" stroke-width="1.5" stroke-linecap="round" stroke-linejoin="round"/>
</svg>
