<svg width="22" height="20" viewBox="0 0 22 20" fill="none" xmlns="http://www.w3.org/2000/svg">
<path d="M3.78164 0L2.67536 1.05742L4.32143 2.63227L5.42614 1.57485L3.78164 0ZM18.2191 0L16.5731 1.57485L17.6786 2.63227L19.3239 1.05817L18.2191 0ZM11 0.469296C10.7407 0.471302 10.4788 0.487346 10.2143 0.51743H10.1907C7.00386 0.867146 4.46757 3.3317 4.02679 6.36859C3.67479 8.81284 4.72764 11.0292 6.48214 12.4567C7.19972 13.043 7.68513 13.8475 7.85714 14.7355V19.2479H9.64857C9.922 19.6969 10.4209 20 11 20C11.5791 20 12.078 19.6969 12.3514 19.2479H14.1429V16.2396H14.2167V15.3461C14.2167 14.2436 14.8154 13.132 15.7881 12.2679C17.0893 11.0209 18.0714 9.2498 18.0714 7.21543C18.0714 3.50017 14.8767 0.434701 11 0.469296ZM11 1.97345C14.0368 1.93284 16.5 4.31241 16.5 7.21543C16.5 8.79028 15.7379 10.1771 14.6826 11.1864L14.7078 11.2105C13.6596 12.1364 12.9816 13.3832 12.7906 14.7362H9.35393C9.18107 13.4471 8.60357 12.1995 7.51221 11.3045C6.12386 10.1764 5.2965 8.47667 5.57307 6.55736C5.91643 4.18832 7.92471 2.28331 10.3856 2.02234C10.5888 1.99537 10.7934 1.9793 10.9984 1.9742L11 1.97345ZM0 7.21543V8.71959H2.35714V7.21543H0ZM19.6429 7.21543V8.71959H22V7.21543H19.6429ZM4.32143 13.3027L2.67614 14.8768L3.78164 15.935L5.42536 14.3602L4.32143 13.3027ZM17.6786 13.3027L16.5739 14.3602L18.2184 15.935L19.3239 14.8768L17.6786 13.3027ZM9.42857 16.2404H12.5714V17.7445H9.42857V16.2404Z" fill="white"/>
</svg>
