<svg width="14" height="14" viewBox="0 0 14 14" fill="none" xmlns="http://www.w3.org/2000/svg">
<path d="M13.1277 5.25005H13.3438C13.7074 5.25005 14 4.95748 14 4.59382V0.65644C14 0.391214 13.8414 0.150596 13.5953 0.0494273C13.3492 -0.0517416 13.0676 0.00567857 12.8789 0.19161L11.4652 1.60797C10.2539 0.604489 8.69531 0.000209996 7 0.000209996C3.47266 0.000209996 0.555078 2.60873 0.0710937 6.00198C0.00273437 6.48048 0.333594 6.92344 0.812109 6.9918C1.29062 7.06015 1.73359 6.72657 1.80195 6.2508C2.16563 3.70518 4.35586 1.75016 7 1.75016C8.21406 1.75016 9.32969 2.1603 10.2184 2.85208L8.94141 4.12899C8.75273 4.31766 8.69805 4.59929 8.79922 4.84538C8.90039 5.09146 9.14102 5.25005 9.40625 5.25005H13.1277ZM13.9316 7.99802C14 7.51952 13.6664 7.07656 13.1906 7.0082C12.7148 6.93985 12.2691 7.27343 12.2008 7.7492C11.8371 10.2921 9.64688 12.2471 7.00273 12.2471C5.78867 12.2471 4.67305 11.837 3.78437 11.1452L5.05859 9.87101C5.24727 9.68234 5.30195 9.40071 5.20078 9.15462C5.09961 8.90854 4.85898 8.74995 4.59375 8.74995H0.65625C0.292578 8.74995 0 9.04252 0 9.40618V13.3436C0 13.6088 0.158594 13.8494 0.404687 13.9506C0.650781 14.0517 0.932422 13.9943 1.12109 13.8084L2.5375 12.392C3.74609 13.3955 5.30469 13.9998 7 13.9998C10.5273 13.9998 13.4449 11.3913 13.9289 7.99802H13.9316Z" fill="#02BA55"/>
</svg>
